<svg id="Capa_1" enable-background="new 0 0 511.866 511.866" height="512" viewBox="0 0 511.866 511.866" width="512" xmlns="http://www.w3.org/2000/svg"><g><g><path d="m147.5 179.089h-52.674c-44.525 0-78.702 39.475-72.33 83.542l11.34 78.415h174.654l11.34-78.415c6.372-44.067-27.806-83.542-72.33-83.542z" fill="#365e7d"/><path d="m91.794 262.63 11.342 78.41h-69.307l-11.333-78.41c-6.375-44.067 27.796-83.54 72.323-83.54h52.672c2.814 0 5.59.163 8.318.469-40.373 4.546-69.987 41.789-64.015 83.071z" fill="#2b4d66"/><path d="m204.403 366.121h-166.48c-13.368 0-24.206-10.837-24.206-24.206 0-13.368 10.837-24.206 24.206-24.206h166.48c13.368 0 24.206 10.837 24.206 24.206 0 13.368-10.838 24.206-24.206 24.206z" fill="#a55e4d"/><path d="m191.242 277.126v96.674c0 38.64-30.905 70.669-69.544 70.957-38.947.291-70.613-31.197-70.613-70.077v-97.554h7.865c15.225 0 27.567-12.342 27.567-27.567 17.497 22.696 51.736 22.696 69.233 0 0 15.225 12.342 27.567 27.567 27.567h7.865" fill="#c18678"/><path d="m143.392 441.106c-6.815 2.316-14.108 3.599-21.699 3.656-38.947.287-70.609-31.194-70.609-70.083v-97.553h7.858c15.228 0 27.576-12.338 27.576-27.566 2.699 3.503 5.81 6.47 9.189 8.892v116.227c0 30.878 19.966 57.085 47.685 66.427z" fill="#b46e59"/><path d="m121.163 380.452c-11.426 0-22.851-4.349-31.549-13.047-3.021-3.02-3.021-7.917-.001-10.938 3.021-3.02 7.919-3.021 10.938 0 11.367 11.366 29.861 11.364 41.226 0 3.02-3.021 7.918-3.021 10.938 0s3.02 7.918-.001 10.938c-8.699 8.697-20.125 13.047-31.551 13.047z" fill="#dd5790"/><g fill="#2b4d66"><path d="m102.877 334.136c-4.272 0-7.735-3.463-7.735-7.735v-14.157c0-4.272 3.462-7.735 7.735-7.735s7.735 3.463 7.735 7.735v14.157c-.001 4.272-3.463 7.735-7.735 7.735z"/><path d="m139.449 334.136c-4.272 0-7.735-3.463-7.735-7.735v-14.157c0-4.272 3.462-7.735 7.735-7.735 4.272 0 7.735 3.463 7.735 7.735v14.157c-.001 4.272-3.463 7.735-7.735 7.735z"/></g></g><g><path d="m301.631 30.505c0 16.855-13.668 30.514-30.514 30.514h-69.499c-8.423 0-16.051-3.417-21.565-8.94-5.523-5.513-8.94-13.151-8.94-21.574 0-1.474.105-2.919.306-4.336 2.106-14.798 14.827-26.169 30.198-26.169h69.499c8.423 0 16.051 3.417 21.574 8.93 4.556 4.556 7.686 10.557 8.634 17.248.201 1.417.307 2.852.307 4.327z" fill="#ffd064"/><path d="m221.714 52.083c5.523 5.523 13.151 8.94 21.574 8.94h-41.674c-8.423 0-16.051-3.417-21.574-8.94-5.513-5.513-8.93-13.151-8.93-21.574 0-16.846 13.659-30.505 30.505-30.505h41.674c-16.846 0-30.514 13.659-30.514 30.505-.001 8.423 3.416 16.061 8.939 21.574z" fill="#ffc250"/><path d="m301.631 30.505c0 16.855-13.668 30.514-30.514 30.514h-69.499c-8.423 0-16.051-3.417-21.565-8.94-5.523-5.513-8.94-13.151-8.94-21.574 0-1.474.105-2.919.306-4.336 6.987-2.115 14.396-3.254 22.062-3.254h85.771c7.676 0 15.094 1.139 22.072 3.264.201 1.416.307 2.851.307 4.326z" fill="#ffc250"/><path d="m279.249 40.143h-85.764c-41.959 0-75.974 34.015-75.974 75.974v15.999c0 41.959 34.015 75.974 75.974 75.974h85.764c41.959 0 75.974-34.015 75.974-75.974v-15.999c0-41.959-34.014-75.974-75.974-75.974z" fill="#ffd064"/><path d="m255.696 208.09h-62.215c-41.952 0-75.969-34.008-75.969-75.969v-16.004c0-41.952 34.017-75.969 75.969-75.969h62.215c-41.952 0-75.969 34.017-75.969 75.969v16.004c0 41.961 34.017 75.969 75.969 75.969z" fill="#ffc250"/><path d="m320.206 201.823h-166.48c-13.368 0-24.206-10.837-24.206-24.206 0-13.368 10.837-24.206 24.206-24.206h166.48c13.368 0 24.206 10.837 24.206 24.206 0 13.369-10.838 24.206-24.206 24.206z" fill="#ffcbbe"/><path d="m166.887 138.648v71.734c0 38.88 31.666 70.367 70.613 70.077 38.639-.288 69.544-32.317 69.544-70.957v-70.854-.179h-3.292c-29.942 0-56.663-18.793-66.786-46.972-10.124 28.179-36.844 46.972-66.786 46.972h-3.292v.179z" fill="#ffece4"/><path d="m257.625 277.306c-6.365 2-13.123 3.101-20.129 3.149-38.947.297-70.609-31.194-70.609-70.073v-71.911h3.293c13.86 0 27.04-4.03 38.19-11.16v83.072c0 31.451 20.722 58.06 49.255 66.923z" fill="#ffddce"/><path d="m236.966 230.533c-11.918 0-23.123-4.642-31.55-13.069-3.02-3.021-3.02-7.918.001-10.939 3.02-3.02 7.918-3.019 10.938.001 5.505 5.506 12.825 8.538 20.611 8.538s15.105-3.032 20.611-8.538c3.021-3.02 7.918-3.02 10.939 0 3.02 3.02 3.02 7.918 0 10.938-8.428 8.427-19.632 13.069-31.55 13.069z" fill="#dd5790"/><g fill="#2b4d66"><path d="m218.68 184.195c-4.272 0-7.735-3.463-7.735-7.735v-14.157c0-4.272 3.462-7.735 7.735-7.735 4.272 0 7.735 3.463 7.735 7.735v14.157c0 4.272-3.463 7.735-7.735 7.735z"/><path d="m255.252 184.195c-4.272 0-7.735-3.463-7.735-7.735v-14.157c0-4.272 3.462-7.735 7.735-7.735 4.272 0 7.735 3.463 7.735 7.735v14.157c-.001 4.272-3.463 7.735-7.735 7.735z"/></g></g><g><path d="m453.69 78.403c-11.268 0-21.106 6.095-26.416 15.164-12.429-19.431-34.181-32.324-58.959-32.324-38.637 0-69.958 31.321-69.958 69.958v81.178h124.736v17.159h61.193v-120.538c.001-16.898-13.698-30.597-30.596-30.597z" fill="#365e7d"/><path d="m398.9 68.273c-7.026 3.424-13.396 7.998-18.864 13.466-12.662 12.662-20.492 30.147-20.492 49.468v81.173h-61.187v-81.173c0-19.321 7.829-36.805 20.492-49.468 12.652-12.662 30.147-20.492 49.468-20.492 10.965 0 21.345 2.531 30.583 7.026z" fill="#2b4d66"/><path d="m473.943 248.276h-166.48c-13.368 0-24.206-10.837-24.206-24.206 0-13.368 10.837-24.206 24.206-24.206h166.48c13.368 0 24.206 10.837 24.206 24.206 0 13.368-10.838 24.206-24.206 24.206z" fill="#ffcbbe"/><path d="m460.782 168.853v87.102c0 38.64-30.905 70.669-69.544 70.957-38.947.291-70.613-31.197-70.613-70.077v-87.982c0-.193.001-.385.002-.577.177-21.993 23.977-35.494 43.214-24.833 7.959 4.411 17.118 6.922 26.862 6.922 21.807 0 40.682-12.577 49.743-30.877 12.567 12.661 20.336 30.103 20.336 49.365z" fill="#ffece4"/><path d="m411.303 323.784c-6.345 1.989-13.077 3.074-20.063 3.13-38.947.292-70.616-31.197-70.616-70.079v-88.557c.17-21.298 22.495-34.629 41.38-25.776v114.334c0 31.47 20.741 58.085 49.299 66.948z" fill="#ffddce"/><path d="m390.703 262.628c-11.918 0-23.123-4.641-31.55-13.069-3.02-3.021-3.02-7.918.001-10.938 3.02-3.021 7.918-3.02 10.938 0 5.505 5.505 12.825 8.538 20.611 8.538s15.106-3.032 20.611-8.538c3.021-3.02 7.919-3.021 10.938 0 3.021 3.02 3.021 7.917.001 10.938-8.427 8.428-19.632 13.069-31.55 13.069z" fill="#dd5790"/><g fill="#2b4d66"><path d="m372.417 216.29c-4.272 0-7.735-3.463-7.735-7.735v-14.157c0-4.272 3.462-7.735 7.735-7.735s7.735 3.463 7.735 7.735v14.157c-.001 4.272-3.463 7.735-7.735 7.735z"/><path d="m408.989 216.29c-4.272 0-7.735-3.463-7.735-7.735v-14.157c0-4.272 3.462-7.735 7.735-7.735 4.272 0 7.734 3.463 7.734 7.735v14.157c0 4.272-3.462 7.735-7.734 7.735z"/></g></g><g><path d="m292.345 246.193h-30.939c-44.272 0-80.162 35.89-80.162 80.162v88.129h191.262v-88.129c.001-44.272-35.889-80.162-80.161-80.162z" fill="#a2847d"/><path d="m310.566 248.27c-35.491 8.26-61.937 40.086-61.937 78.085v88.135h-67.384v-88.135c0-44.268 35.884-80.162 80.162-80.162h30.935c6.269 0 12.366.718 18.224 2.077z" fill="#8e736e"/><path d="m360.116 433.221h-166.48c-13.368 0-24.206-10.837-24.206-24.206 0-13.368 10.837-24.206 24.206-24.206h166.48c13.368 0 24.206 10.837 24.206 24.206 0 13.369-10.838 24.206-24.206 24.206z" fill="#ffcbbe"/><path d="m346.955 344.227v96.674c0 38.64-30.905 70.669-69.544 70.957-38.947.291-70.613-31.197-70.613-70.077v-97.554c0-.193.001-35.229.002-35.421-.001 0 54.229 63.017 140.155 35.421z" fill="#ffece4"/><path d="m297.755 508.657c-6.423 2.029-13.257 3.149-20.349 3.207-38.947.287-70.609-31.194-70.609-70.083v-132.968s15.066 17.506 41.895 30.026v102.942c0 31.394 20.626 57.946 49.063 66.876z" fill="#ffddce"/><path d="m276.876 447.553c-11.427 0-22.852-4.349-31.55-13.047-3.021-3.02-3.021-7.917-.001-10.938 3.021-3.02 7.919-3.021 10.938 0 11.365 11.365 29.858 11.366 41.226 0 3.02-3.021 7.918-3.021 10.938 0s3.02 7.918-.001 10.938c-8.699 8.698-20.124 13.047-31.55 13.047z" fill="#dd5790"/><g fill="#2b4d66"><path d="m258.589 401.236c-4.272 0-7.735-3.463-7.735-7.735v-14.157c0-4.272 3.462-7.735 7.735-7.735 4.272 0 7.735 3.463 7.735 7.735v14.157c0 4.272-3.462 7.735-7.735 7.735z"/><path d="m295.162 401.236c-4.272 0-7.735-3.463-7.735-7.735v-14.157c0-4.272 3.462-7.735 7.735-7.735 4.272 0 7.735 3.463 7.735 7.735v14.157c0 4.272-3.463 7.735-7.735 7.735z"/></g></g></g></svg>