<svg id="Capa_1" enable-background="new 0 0 512 512" height="512" viewBox="0 0 512 512" width="512" xmlns="http://www.w3.org/2000/svg"><g><g><path d="m412.813 159.877h-195.302c-9.829 0-17.797-7.968-17.797-17.797v-74.271c0-37.39 30.419-67.809 67.809-67.809h95.279c37.39 0 67.809 30.419 67.809 67.809v74.272c-.001 9.828-7.968 17.796-17.798 17.796zm-177.505-35.594h159.708v-56.474c0-17.763-14.451-32.215-32.215-32.215h-95.279c-17.763 0-32.215 14.451-32.215 32.215v56.474z" fill="#ffd064"/><g fill="#ffc250"><path d="m218.653 142.08v-74.271c0-37.39 30.419-67.809 67.808-67.809h-18.938c-37.39 0-67.809 30.419-67.809 67.809v74.272c0 9.829 7.968 17.797 17.797 17.797h18.938c-9.828-.001-17.796-7.969-17.796-17.798z"/><path d="m413.955 124.283v-56.474c0-17.763-14.451-32.215-32.215-32.215h-18.938c17.763 0 32.215 14.451 32.215 32.215v56.474z"/></g><path d="m415.595 388.486h-200.864c-41.282 0-74.748-33.466-74.748-74.748v-143.072c0-41.282 33.466-74.748 74.748-74.748h200.864c41.282 0 74.748 33.466 74.748 74.748v143.072c0 41.282-33.466 74.748-74.748 74.748z" fill="#ffc250"/><path d="m490.343 170.666v35.327c0 41.28-33.458 74.747-74.747 74.747h-200.858c-41.289 0-74.756-33.467-74.756-74.747v-35.327c0-41.28 33.467-74.747 74.756-74.747h200.857c41.29-.001 74.748 33.467 74.748 74.747z" fill="#ffd064"/><path d="m305.61 280.74h-90.872c-41.289 0-74.756-33.467-74.756-74.747v-35.327c0-41.28 33.467-74.747 74.756-74.747h90.872c-41.289 0-74.756 33.467-74.756 74.747v35.327c-.001 41.28 33.467 74.747 74.756 74.747z" fill="#ffc250"/></g><g><path d="m294.489 283.391h-195.302c-9.829 0-17.797-7.968-17.797-17.797v-74.272c0-37.39 30.419-67.809 67.809-67.809h95.279c37.39 0 67.809 30.419 67.809 67.809v74.272c-.001 9.829-7.969 17.797-17.798 17.797zm-177.505-35.594h159.708v-56.474c0-17.763-14.451-32.215-32.215-32.215h-95.279c-17.763 0-32.215 14.451-32.215 32.215v56.474z" fill="#7a635e"/><g fill="#66544f"><path d="m100.328 265.594v-74.272c0-37.39 30.419-67.809 67.809-67.809h-18.938c-37.39 0-67.809 30.419-67.809 67.809v74.272c0 9.829 7.968 17.797 17.797 17.797h18.938c-9.829 0-17.797-7.968-17.797-17.797z"/><path d="m295.63 247.797v-56.474c0-17.763-14.451-32.215-32.215-32.215h-18.938c17.763 0 32.215 14.451 32.215 32.215v56.474z"/></g><path d="m297.27 512h-200.864c-41.282 0-74.748-33.466-74.748-74.748v-143.072c0-41.282 33.466-74.748 74.748-74.748h200.864c41.282 0 74.748 33.466 74.748 74.748v143.072c0 41.282-33.466 74.748-74.748 74.748z" fill="#7a635e"/><path d="m187.278 512h-90.872c-41.28 0-74.747-33.467-74.747-74.747v-143.07c0-41.28 33.467-74.748 74.747-74.748h90.872c-41.28 0-74.747 33.467-74.747 74.748v143.07c-.001 41.28 33.467 74.747 74.747 74.747z" fill="#66544f"/><path d="m372.018 294.18v35.327c0 41.28-33.458 74.747-74.747 74.747h-200.857c-41.289 0-74.756-33.467-74.756-74.747v-35.327c0-41.28 33.467-74.747 74.756-74.747h200.857c41.289 0 74.747 33.467 74.747 74.747z" fill="#a2847d"/><path d="m187.285 404.255h-90.871c-41.289 0-74.756-33.467-74.756-74.747v-35.328c0-41.28 33.467-74.747 74.756-74.747h90.872c-41.289 0-74.756 33.467-74.756 74.747v35.327c-.001 41.28 33.466 74.748 74.755 74.748z" fill="#8e736e"/><path d="m207.01 449.06h-20.344c-17.262 0-31.256-13.994-31.256-31.256v-38.099c0-17.262 13.994-31.256 31.256-31.256h20.344c17.262 0 31.256 13.994 31.256 31.256v38.099c0 17.262-13.994 31.256-31.256 31.256z" fill="#ffd064"/><g fill="#ffc250"><path d="m208.722 449.006c-.567.031-1.143.051-1.72.051h-20.336c-17.266 0-31.256-13.99-31.256-31.256v-38.096c0-17.256 13.99-31.256 31.256-31.256h20.336c.577 0 1.154.021 1.72.052-16.462.886-29.535 14.526-29.535 31.204v38.096c0 16.69 13.073 30.319 29.535 31.205z"/><path d="m186.666 422.364c-2.514 0-4.56-2.046-4.56-4.56v-18.556c0-2.515 2.046-4.56 4.56-4.56h20.344c2.514 0 4.56 2.046 4.56 4.56v18.556c0 2.515-2.046 4.56-4.56 4.56z"/></g></g></g></svg>