<svg id="Capa_1" enable-background="new 0 0 512 512" height="512" viewBox="0 0 512 512" width="512" xmlns="http://www.w3.org/2000/svg"><g><g><path d="m294.406 244.953c18.207 0 32.967 14.76 32.967 32.967v99.464c0 46.037-37.32 83.357-83.357 83.357l-47.473 25.629-39.072-25.629c-46.037 0-83.357-37.32-83.357-83.357v-176.537c0-15.329 12.071-28.195 27.395-28.595 8.074-.211 15.402 2.975 20.655 8.236 5.097 5.089 8.246 12.126 8.246 19.902" fill="#ffece4"/><path d="m182.41 460.741h-24.937c-46.032 0-83.357-37.317-83.357-83.357v-176.539c0-15.329 12.072-28.194 27.401-28.594 4.773-.123 9.293.939 13.265 2.926-9.362 4.696-15.729 14.536-15.729 25.669v176.539c-.001 46.039 37.316 83.356 83.357 83.356z" fill="#ffddce"/><path d="m442.297 89.642c-11.51 0-22.358 2.807-31.925 7.748v-58.122c0-21.681-17.584-39.265-39.279-39.265h-55.683c10.251 12.916 16.364 29.253 16.364 47.023 0 41.865-33.922 75.786-75.773 75.786s-75.786-33.921-75.786-75.786c0-17.77 6.113-34.107 16.364-47.023h-55.669c-21.695 0-39.279 17.584-39.279 39.265v58.121c-9.567-4.94-20.415-7.748-31.925-7.748-38.493 0-69.698 31.205-69.698 69.698s31.205 69.698 69.698 69.698c11.51 0 22.357-2.807 31.925-7.748v58.108c0 21.695 17.584 39.279 39.279 39.279h230.183c21.695 0 39.279-17.584 39.279-39.279v-58.107c9.567 4.94 20.415 7.748 31.925 7.748 38.493 0 69.698-31.205 69.698-69.698s-31.205-69.698-69.698-69.698z" fill="#ffd064"/><g fill="#ffc250"><path d="m270.703 121.372c4.758.936 9.672 1.438 14.704 1.438 41.852 0 75.773-33.921 75.773-75.786 0-17.77-6.113-34.107-16.364-47.023h-29.407c10.251 12.916 16.364 29.254 16.364 47.023-.001 36.83-26.259 67.501-61.07 74.348z"/><path d="m131.036 97.386v-58.121c0-21.681 17.584-39.265 39.279-39.265h-29.407c-21.695 0-39.279 17.584-39.279 39.265v50.423c10.573.378 20.541 3.12 29.407 7.698z"/><path d="m131.036 279.395v-58.108c-8.866 4.578-18.834 7.32-29.407 7.698v50.41c0 21.695 17.584 39.279 39.279 39.279h29.407c-21.695-.001-39.279-17.584-39.279-39.279z"/><path d="m29.413 159.337c0-33.452 23.571-61.386 55.006-68.133-4.743-1.024-9.665-1.565-14.715-1.565-38.493 0-69.698 31.205-69.698 69.698s31.205 69.698 69.698 69.698c5.05 0 9.972-.541 14.715-1.565-31.435-6.747-55.006-34.682-55.006-68.133z"/></g><path d="m232.136 375.645c0-19.808 12.097-36.787 29.304-43.963v-53.764c0-18.207 14.76-32.967 32.967-32.967 18.207 0 32.967 14.76 32.967 32.967v99.464c0 46.037-37.32 83.357-83.357 83.357" fill="#ffece4"/><path d="m307.604 247.7c-11.633 5.089-19.771 16.707-19.771 30.219v53.762c-17.207 7.176-29.303 24.16-29.303 43.969h-26.392c0-19.81 12.095-36.794 29.303-43.969v-53.762c0-18.208 14.759-32.967 32.967-32.967 4.688 0 9.154.977 13.196 2.748z" fill="#ffddce"/></g><path d="m265.829 460.74h-138.571c-14.155 0-25.629 11.475-25.629 25.629 0 14.155 11.475 25.629 25.629 25.629h138.571c14.155 0 25.629-11.475 25.629-25.629 0-14.154-11.474-25.629-25.629-25.629z" fill="#dd5790"/><path d="m166.488 504.49c4.636 4.636 11.044 7.51 18.121 7.51h-57.349c-7.077 0-13.485-2.874-18.121-7.51s-7.51-11.043-7.51-18.121c0-14.154 11.476-25.62 25.631-25.62h57.349c-14.154 0-25.63 11.466-25.63 25.62-.001 7.078 2.863 13.485 7.509 18.121z" fill="#da387d"/></g></svg>