<svg width="127" height="42" viewBox="0 0 127 42" fill="none" xmlns="http://www.w3.org/2000/svg">
<path d="M0.824 42V0.767999H9.032V15.504H12.92V0.767999H21.128V42H12.92V23.28H9.032V42H0.824ZM26.5531 42L30.5371 0.767999H44.5051L48.4411 42H40.6171L40.0411 35.328H35.0491L34.5691 42H26.5531ZM35.6731 28.752H39.4171L37.5931 7.776H37.2091L35.6731 28.752ZM53.834 42V0.767999H62.33L66.122 20.496V0.767999H74.09V42H66.026L61.898 21.36V42H53.834ZM80.6202 0.767999H91.9962C94.9402 0.767999 97.1483 1.584 98.6203 3.216C100.092 4.848 100.844 7.264 100.876 10.464L100.972 29.76C101.004 33.824 100.3 36.88 98.8602 38.928C97.4203 40.976 95.0363 42 91.7083 42H80.6202V0.767999ZM90.3642 34.704C91.8683 34.704 92.6203 33.968 92.6203 32.496V11.232C92.6203 10.304 92.5403 9.616 92.3803 9.168C92.2523 8.688 91.9963 8.368 91.6123 8.208C91.2283 8.048 90.6363 7.968 89.8362 7.968H88.9242V34.704H90.3642ZM112.164 42V28.416L105.588 0.767999H113.748L116.052 14.736L118.356 0.767999H126.516L119.94 28.416V42H112.164Z" fill="white"/>
</svg>
